<?xml version="1.0" encoding="UTF-8" standalone="no"?>
<!-- Created with Inkscape (http://www.inkscape.org/) -->
<svg
   xmlns:svg="http://www.w3.org/2000/svg"
   xmlns="http://www.w3.org/2000/svg"
   xmlns:xlink="http://www.w3.org/1999/xlink"
   version="1.0"
   width="729.59778"
   height="337.61658"
   id="svg2">
  <defs
     id="defs4">
    <marker
       refX="0"
       refY="0"
       orient="auto"
       id="Arrow1Lend"
       style="overflow:visible">
      <path
         d="M 0,0 L 5,-5 L -12.5,0 L 5,5 L 0,0 z"
         transform="matrix(-0.8,0,0,-0.8,-10,0)"
         id="path4742"
         style="fill-rule:evenodd;stroke:#000000;stroke-width:1pt;marker-start:none" />
    </marker>
    <marker
       refX="0"
       refY="0"
       orient="auto"
       id="Arrow1Lstart"
       style="overflow:visible">
      <path
         d="M 0,0 L 5,-5 L -12.5,0 L 5,5 L 0,0 z"
         transform="matrix(0.8,0,0,0.8,10,0)"
         id="path4745"
         style="fill-rule:evenodd;stroke:#000000;stroke-width:1pt;marker-start:none" />
    </marker>
    <linearGradient
       id="linearGradient10989">
      <stop
         id="stop10991"
         style="stop-color:#3788ff;stop-opacity:1"
         offset="0" />
      <stop
         id="stop10993"
         style="stop-color:#86b7ff;stop-opacity:1"
         offset="1" />
    </linearGradient>
    <linearGradient
       id="linearGradient9211">
      <stop
         id="stop9213"
         style="stop-color:#c87137;stop-opacity:1"
         offset="0" />
      <stop
         id="stop9215"
         style="stop-color:#d8986f;stop-opacity:1"
         offset="1" />
    </linearGradient>
    <marker
       refX="0"
       refY="0"
       orient="auto"
       id="Dot_l"
       style="overflow:visible">
      <path
         d="M -2.5,-1 C -2.5,1.76 -4.74,4 -7.5,4 C -10.26,4 -12.5,1.76 -12.5,-1 C -12.5,-3.76 -10.26,-6 -7.5,-6 C -4.74,-6 -2.5,-3.76 -2.5,-1 z"
         transform="matrix(0.8,0,0,0.8,5.92,0.8)"
         id="path4683"
         style="fill-rule:evenodd;stroke:#000000;stroke-width:1pt;marker-start:none;marker-end:none" />
    </marker>
    <marker
       refX="0"
       refY="0"
       orient="auto"
       id="Dot_m"
       style="overflow:visible">
      <path
         d="M -2.5,-1 C -2.5,1.76 -4.74,4 -7.5,4 C -10.26,4 -12.5,1.76 -12.5,-1 C -12.5,-3.76 -10.26,-6 -7.5,-6 C -4.74,-6 -2.5,-3.76 -2.5,-1 z"
         transform="matrix(0.4,0,0,0.4,2.96,0.4)"
         id="path4680"
         style="fill-rule:evenodd;stroke:#000000;stroke-width:1pt;marker-start:none;marker-end:none" />
    </marker>
    <linearGradient
       x1="318.57538"
       y1="531.32794"
       x2="318.57538"
       y2="366.23492"
       id="linearGradient9217"
       xlink:href="#linearGradient9211"
       gradientUnits="userSpaceOnUse" />
    <linearGradient
       x1="253.25798"
       y1="-811.35828"
       x2="250.85007"
       y2="-954.00964"
       id="linearGradient10995"
       xlink:href="#linearGradient10989"
       gradientUnits="userSpaceOnUse" />
  </defs>
  <g
     transform="translate(-9.465623,-185.9603)"
     id="layer1">
    <g
       id="g17365">
      <path
         d="M 175.40312,223.2728 L 175.30937,224.05405 L 291.02812,238.7103 L 291.09062,238.7103 L 291.12187,238.7103 L 396.52812,228.36655 L 396.46562,227.5853 L 291.15312,237.8978 L 291.05937,237.8978 L 175.40312,223.2728 z"
         id="path16474"
         style="opacity:1;fill:#000000;fill-opacity:1;fill-rule:nonzero;stroke:none;stroke-width:0.80000001;stroke-linecap:butt;stroke-linejoin:miter;marker:none;stroke-miterlimit:4;stroke-dasharray:none;stroke-dashoffset:0;stroke-opacity:1;visibility:visible;display:inline;overflow:visible" />
      <path
         d="M 183.29723,224.66349 L 186.87375,221.89068 L 175.36056,223.65885 L 186.07005,228.24001 L 183.29723,224.66349 z"
         id="path17371"
         style="fill-rule:evenodd;stroke:#000000;stroke-width:0.64000001pt;marker-start:none" />
      <path
         d="M 388.53224,228.76246 L 385.65947,232.2592 L 396.49413,227.9825 L 385.03551,225.88969 L 388.53224,228.76246 z"
         id="path17373"
         style="fill-rule:evenodd;stroke:#000000;stroke-width:0.64000001pt;marker-start:none" />
    </g>
    <path
       d="M -70.783523,-895.39328 C -28.883725,-889.36382 19.80478,-892.45533 62.584767,-896.30757 C 151.82817,-904.34373 231.74024,-920.93981 325.88583,-939.76376 C 360.74126,-946.73293 396.67677,-955.08209 431.57831,-952.54437 C 456.04198,-950.76559 483.17715,-940.51676 504.44691,-928.77644 C 550.67058,-903.26226 664.53567,-880.93344 664.53567,-880.93344 L 669.46896,-813.90666 L -72.416293,-806.15562 L -70.783523,-895.39328 z"
       transform="translate(77.95275,1342.52)"
       id="path2765"
       style="fill:url(#linearGradient10995);fill-opacity:1;fill-rule:evenodd;stroke:#000000;stroke-width:2;stroke-linecap:round;stroke-linejoin:round;stroke-miterlimit:4;stroke-dasharray:none;stroke-dashoffset:0;stroke-opacity:1" />
    <path
       d="M -4.4291657,525.29147 L -2.2145828,432.27899 C -2.2145828,432.27899 29.896868,435.60086 46.50624,454.42482 C 63.115611,473.24877 80.832274,466.60502 80.832274,466.60502 C 80.832274,466.60502 97.441645,462.17586 100.76352,469.9269 C 104.08539,477.67794 119.58747,477.67794 119.58747,477.67794 C 119.58747,477.67794 130.66039,475.46335 141.7333,463.28315 C 152.80622,451.10294 220.35099,454.42482 220.35099,454.42482 C 220.35099,454.42482 230.31662,455.53211 245.8187,448.88836 C 261.32078,442.24461 275.71556,449.99565 275.71556,449.99565 C 275.71556,449.99565 287.89577,454.42482 308.93431,445.56648 C 329.97284,436.70815 431.84366,400.16754 441.80928,381.34358 C 451.7749,362.51963 486.978,358.36458 486.978,358.36458 C 504.98701,356.49564 505.06874,358.91722 510.00373,359.587 C 527.97287,356.76949 530.39259,363.62692 530.39259,363.62692 C 530.39259,363.62692 563.61133,409.02587 579.11341,432.27899 C 592.14287,451.82319 747.42171,497.60918 747.42171,497.60918 C 750.74358,504.25293 742.99254,530.82792 742.99254,530.82792"
       id="path2785"
       style="opacity:1;fill:url(#linearGradient9217);fill-opacity:1;fill-rule:nonzero;stroke:#000000;stroke-width:1;stroke-linecap:butt;stroke-linejoin:miter;marker:none;marker-start:none;marker-mid:none;marker-end:none;stroke-miterlimit:4;stroke-dasharray:none;stroke-dashoffset:0;stroke-opacity:1;visibility:visible;display:inline;overflow:visible" />
    <path
       d="M -70.783523,-884.32037 C 55.235682,-920.42531 188.31612,-939.76376 325.88583,-939.76376 C 442.12204,-939.76376 555.15334,-925.95805 663.42838,-899.89801"
       transform="translate(77.95275,1342.52)"
       id="path2760"
       style="fill:none;fill-opacity:1;fill-rule:evenodd;stroke:#00e63b;stroke-width:3;stroke-linecap:round;stroke-linejoin:round;stroke-miterlimit:4;stroke-dasharray:12, 12;stroke-dashoffset:0;stroke-opacity:1" />
    <rect
       width="728.59778"
       height="336.61658"
       x="9.9656229"
       y="186.4603"
       id="rect2763"
       style="opacity:1;fill:none;fill-opacity:1;fill-rule:evenodd;stroke:#000000;stroke-width:1;stroke-linecap:round;stroke-linejoin:round;stroke-miterlimit:4;stroke-dasharray:none;stroke-dashoffset:0;stroke-opacity:1" />
    <g
       id="g16432">
      <path
         d="M 34.5625,288.78125 L 33.5625,288.90625 L 33.5625,420.59375 L 34.5625,420.59375 L 34.5625,293.0625 L 95.34375,545.5 L 96.3125,545.28125 L 34.5625,288.78125 z"
         id="path2790"
         style="opacity:1;fill:#000000;fill-opacity:1;fill-rule:nonzero;stroke:none;stroke-width:1;stroke-linecap:butt;stroke-linejoin:miter;marker:none;stroke-miterlimit:4;stroke-dasharray:none;stroke-dashoffset:0;stroke-opacity:1;visibility:visible;display:inline;overflow:visible" />
      <path
         d="M 34.074749,424.51793 C 31.866749,424.51793 30.074749,422.72593 30.074749,420.51793 C 30.074749,418.30993 31.866749,416.51793 34.074749,416.51793 C 36.282749,416.51793 38.074749,418.30993 38.074749,420.51793 C 38.074749,422.72593 36.282749,424.51793 34.074749,424.51793 z"
         id="path16438"
         style="fill-rule:evenodd;stroke:#000000;stroke-width:0.8pt;marker-start:none;marker-end:none" />
    </g>
    <g
       id="g16424">
      <path
         d="M 179.15625,259.375 L 178.15625,259.5 L 219.28125,551.5 L 220.28125,551.34375 L 199.125,401.1875 L 199.1875,401.1875 L 179.15625,259.375 z"
         id="path2792"
         style="opacity:1;fill:#000000;fill-opacity:1;fill-rule:nonzero;stroke:none;stroke-width:1;stroke-linecap:butt;stroke-linejoin:miter;marker:none;stroke-miterlimit:4;stroke-dasharray:none;stroke-dashoffset:0;stroke-opacity:1;visibility:visible;display:inline;overflow:visible" />
      <path
         d="M 199.24082,405.13968 C 197.05451,405.44846 195.02952,403.92467 194.72074,401.73837 C 194.41196,399.55207 195.93575,397.52707 198.12205,397.21829 C 200.30835,396.90951 202.33335,398.4333 202.64213,400.6196 C 202.95091,402.8059 201.42712,404.8309 199.24082,405.13968 z"
         id="path16430"
         style="fill-rule:evenodd;stroke:#000000;stroke-width:0.8pt;marker-start:none;marker-end:none" />
    </g>
    <g
       id="g2564">
      <path
         d="M 411.77802,253.53345 L 410.25,253.90625 L 406.75,556.90625 L 407.75,556.90625 L 411.14173,256.01673 L 431.36142,359.82999 L 432.26767,359.39249 L 411.77802,253.53345 z"
         id="path2794"
         style="fill:#000000;fill-opacity:1;fill-rule:nonzero;stroke:none;stroke-width:1;stroke-linecap:butt;stroke-linejoin:miter;marker:none;stroke-miterlimit:4;stroke-dasharray:none;stroke-dashoffset:0;stroke-opacity:1;visibility:visible;display:inline;overflow:visible" />
      <path
         d="M 433.54315,362.09603 C 431.554,363.05444 429.16178,362.2179 428.20337,360.22875 C 427.24496,358.2396 428.08151,355.84738 430.07066,354.88897 C 432.05981,353.93056 434.45203,354.7671 435.41044,356.75625 C 436.36885,358.7454 435.5323,361.13762 433.54315,362.09603 z"
         id="path16422"
         style="fill-rule:evenodd;stroke:#000000;stroke-width:0.8pt;marker-start:none;marker-end:none" />
    </g>
    <g
       id="g16400">
      <path
         d="M 508.78125,252.9375 L 485.125,561.40625 L 486.09375,561.5 L 502.34375,349.71875 L 502.40625,349.71875 L 509.78125,253.03125 L 508.78125,252.9375 z"
         id="path3683"
         style="opacity:1;fill:#000000;fill-opacity:1;fill-rule:nonzero;stroke:none;stroke-width:1;stroke-linecap:butt;stroke-linejoin:miter;marker:none;stroke-miterlimit:4;stroke-dasharray:none;stroke-dashoffset:0;stroke-opacity:1;visibility:visible;display:inline;overflow:visible" />
      <path
         d="M 501.61404,353.59428 C 499.41242,353.42654 497.76173,351.50358 497.92948,349.30196 C 498.09722,347.10034 500.02018,345.44966 502.2218,345.6174 C 504.42342,345.78514 506.0741,347.7081 505.90636,349.90972 C 505.73862,352.11134 503.81566,353.76202 501.61404,353.59428 z"
         id="path16406"
         style="fill-rule:evenodd;stroke:#000000;stroke-width:0.8pt;marker-start:none;marker-end:none" />
    </g>
    <g
       id="g16408">
      <path
         d="M 568.65625,311.75 L 550.25,365.1875 L 551.1875,365.5 L 568.09375,316.53125 L 538.59375,561.25 L 539.59375,561.375 L 569.59375,312.15625 L 569.625,312.09375 L 569.625,312 L 568.65625,311.75 z"
         id="path3685"
         style="opacity:1;fill:#000000;fill-opacity:1;fill-rule:nonzero;stroke:none;stroke-width:1;stroke-linecap:butt;stroke-linejoin:miter;marker:none;stroke-miterlimit:4;stroke-dasharray:none;stroke-dashoffset:0;stroke-opacity:1;visibility:visible;display:inline;overflow:visible" />
      <path
         d="M 549.44373,369.04744 C 547.35634,368.32765 546.24641,366.04937 546.9662,363.96199 C 547.68598,361.8746 549.96427,360.76467 552.05165,361.48446 C 554.13904,362.20425 555.24897,364.48253 554.52918,366.56991 C 553.80939,368.6573 551.53111,369.76723 549.44373,369.04744 z"
         id="path16414"
         style="fill-rule:evenodd;stroke:#000000;stroke-width:0.8pt;marker-start:none;marker-end:none" />
    </g>
    <path
       d="M 34.074749,175.15354 L 34.074749,449.79026"
       id="path4772"
       style="opacity:1;fill:none;fill-opacity:1;fill-rule:nonzero;stroke:#000000;stroke-width:0.80000001;stroke-linecap:butt;stroke-linejoin:miter;marker:none;marker-start:none;marker-mid:none;marker-end:none;stroke-miterlimit:4;stroke-dasharray:0.8, 1.6;stroke-dashoffset:0;stroke-opacity:1;visibility:visible;display:inline;overflow:visible" />
    <path
       d="M 167.17072,178.06874 L 198.69262,401.2582"
       id="path4774"
       style="opacity:1;fill:none;fill-opacity:1;fill-rule:nonzero;stroke:#000000;stroke-width:0.80000001;stroke-linecap:butt;stroke-linejoin:miter;marker:none;marker-start:none;marker-mid:none;marker-end:none;stroke-miterlimit:4;stroke-dasharray:0.8, 1.6;stroke-dashoffset:0;stroke-opacity:1;visibility:visible;display:inline;overflow:visible" />
    <path
       d="M 397.87363,186.71463 L 439.0939,395.34745"
       id="path4776"
       style="opacity:1;fill:none;fill-opacity:1;fill-rule:nonzero;stroke:#000000;stroke-width:0.80000001;stroke-linecap:butt;stroke-linejoin:miter;marker:none;marker-start:none;marker-mid:none;marker-end:none;stroke-miterlimit:4;stroke-dasharray:0.8, 1.6;stroke-dashoffset:0;stroke-opacity:1;visibility:visible;display:inline;overflow:visible" />
    <path
       d="M 515.31677,173.74584 L 501.91184,349.68561"
       id="path4778"
       style="opacity:1;fill:none;fill-opacity:1;fill-rule:nonzero;stroke:#000000;stroke-width:0.80000001;stroke-linecap:butt;stroke-linejoin:miter;marker:none;marker-start:none;marker-mid:none;marker-end:none;stroke-miterlimit:4;stroke-dasharray:0.8, 1.6;stroke-dashoffset:0;stroke-opacity:1;visibility:visible;display:inline;overflow:visible" />
    <path
       d="M 614.61268,180.05744 L 540.0353,396.33187"
       id="path4780"
       style="opacity:1;fill:none;fill-opacity:1;fill-rule:nonzero;stroke:#000000;stroke-width:0.80000001;stroke-linecap:butt;stroke-linejoin:miter;marker:none;marker-start:none;marker-mid:none;marker-end:none;stroke-miterlimit:4;stroke-dasharray:0.8, 1.6;stroke-dashoffset:0;stroke-opacity:1;visibility:visible;display:inline;overflow:visible" />
    <path
       d="M -70.783523,-895.39328 C -28.883725,-889.36382 19.80478,-892.45533 62.584767,-896.30757 C 151.82817,-904.34373 231.74024,-920.93981 325.88583,-939.76376 C 360.74126,-946.73293 396.67677,-955.08209 431.57831,-952.54437 C 456.04198,-950.76559 483.17715,-940.51676 504.44691,-928.77644 C 550.67058,-903.26226 664.53567,-880.93344 664.53567,-880.93344 L 669.46896,-813.90666 L -72.416293,-806.15562 L -70.783523,-895.39328 z"
       transform="translate(77.95275,1342.52)"
       id="path14543"
       style="fill:none;fill-opacity:1;fill-rule:evenodd;stroke:#000000;stroke-width:2;stroke-linecap:round;stroke-linejoin:round;stroke-miterlimit:4;stroke-dasharray:none;stroke-dashoffset:0;stroke-opacity:1" />
    <path
       d="M 85.882427,60.304638 A 10.032993,10.032993 0 1 1 65.816441,60.304638 A 10.032993,10.032993 0 1 1 85.882427,60.304638 z"
       transform="translate(38.8902,401.5364)"
       id="path16315"
       style="fill:#ffff00;fill-opacity:1;fill-rule:evenodd;stroke:#000000;stroke-width:0.80000001;stroke-linecap:butt;stroke-linejoin:miter;stroke-miterlimit:4;stroke-dasharray:none;stroke-dashoffset:0;stroke-opacity:1" />
    <path
       d="M 116.90366,470.46603 L 114.79428,470.46603 L 114.79428,457.02463 C 114.28646,457.50902 113.62045,457.99339 112.79623,458.47775 C 111.97201,458.96214 111.23178,459.32542 110.57553,459.5676 L 110.57553,457.52853 C 111.75521,456.97386 112.78646,456.30199 113.66928,455.51291 C 114.55209,454.72386 115.17709,453.95824 115.54428,453.21603 L 116.90366,453.21603 L 116.90366,470.46603 z"
       id="text16323"
       style="font-size:24px;font-style:normal;font-variant:normal;font-weight:normal;font-stretch:normal;text-align:center;line-height:100%;writing-mode:lr-tb;text-anchor:middle;fill:#000000;fill-opacity:1;stroke:none;stroke-width:1px;stroke-linecap:butt;stroke-linejoin:miter;stroke-opacity:1;font-family:Arial" />
    <path
       d="M 85.882427,60.304638 A 10.032993,10.032993 0 1 1 65.816441,60.304638 A 10.032993,10.032993 0 1 1 85.882427,60.304638 z"
       transform="translate(51.11468,357.4765)"
       id="path16319"
       style="fill:#ffff00;fill-opacity:1;fill-rule:evenodd;stroke:#000000;stroke-width:0.80000001;stroke-linecap:butt;stroke-linejoin:miter;stroke-miterlimit:4;stroke-dasharray:none;stroke-dashoffset:0;stroke-opacity:1" />
    <path
       d="M 132.65356,424.37874 L 132.65356,426.40608 L 121.29809,426.40608 C 121.28247,425.89827 121.3645,425.40999 121.54419,424.94124 C 121.83325,424.16781 122.29614,423.40609 122.93286,422.65608 C 123.56957,421.90609 124.48949,421.0389 125.69262,420.05452 C 127.5598,418.52328 128.82152,417.31039 129.47778,416.41585 C 130.13402,415.52133 130.46214,414.67563 130.46215,413.87874 C 130.46214,413.04282 130.16332,412.33774 129.56567,411.76351 C 128.96801,411.1893 128.18871,410.90219 127.22778,410.90218 C 126.21215,410.90219 125.39965,411.20688 124.79028,411.81624 C 124.1809,412.42563 123.87231,413.26938 123.8645,414.34749 L 121.69653,414.12483 C 121.84497,412.50766 122.40356,411.27524 123.37231,410.42757 C 124.34106,409.57993 125.64184,409.1561 127.27465,409.15608 C 128.92308,409.1561 130.22777,409.61313 131.18872,410.52718 C 132.14964,411.44126 132.63011,412.57407 132.63012,413.92562 C 132.63011,414.61313 132.48949,415.28891 132.20825,415.95296 C 131.92699,416.61703 131.46019,417.31625 130.80786,418.05062 C 130.1555,418.785 129.07152,419.79281 127.5559,421.07405 C 126.29027,422.13656 125.47777,422.85726 125.1184,423.23616 C 124.75902,423.61507 124.46215,423.99593 124.22778,424.37874 L 132.65356,424.37874 z"
       id="text16327"
       style="font-size:24px;font-style:normal;font-variant:normal;font-weight:normal;font-stretch:normal;text-align:center;line-height:100%;writing-mode:lr-tb;text-anchor:middle;fill:#000000;fill-opacity:1;stroke:none;stroke-width:1px;stroke-linecap:butt;stroke-linejoin:miter;stroke-opacity:1;font-family:Arial" />
    <path
       d="M 85.882427,60.304638 A 10.032993,10.032993 0 1 1 65.816441,60.304638 A 10.032993,10.032993 0 1 1 85.882427,60.304638 z"
       transform="translate(215.7207,178.0085)"
       id="path16321"
       style="fill:#ffff00;fill-opacity:1;fill-rule:evenodd;stroke:#000000;stroke-width:0.80000001;stroke-linecap:butt;stroke-linejoin:miter;stroke-miterlimit:4;stroke-dasharray:none;stroke-dashoffset:0;stroke-opacity:1" />
    <path
       d="M 285.94509,242.29817 L 288.05446,242.01692 C 288.29664,243.21224 288.70875,244.07357 289.29079,244.60091 C 289.87281,245.12825 290.5818,245.39192 291.41774,245.39192 C 292.40992,245.39192 293.24781,245.04817 293.93141,244.36067 C 294.615,243.67318 294.95679,242.82161 294.9568,241.80598 C 294.95679,240.83724 294.64039,240.03841 294.00759,239.4095 C 293.37476,238.7806 292.57008,238.46615 291.59352,238.46614 C 291.19508,238.46615 290.69899,238.54427 290.10524,238.70052 L 290.33962,236.84895 C 290.48024,236.86459 290.59352,236.8724 290.67946,236.87239 C 291.57789,236.8724 292.38648,236.63803 293.10524,236.16927 C 293.82398,235.70053 294.18336,234.97787 294.18337,234.0013 C 294.18336,233.22787 293.92164,232.58725 293.39821,232.07942 C 292.87476,231.57162 292.19898,231.31772 291.37087,231.3177 C 290.55055,231.31772 289.86696,231.57553 289.32009,232.09114 C 288.77321,232.60678 288.42164,233.38022 288.2654,234.41145 L 286.15602,234.03645 C 286.41383,232.6224 286.99977,231.5267 287.91384,230.74934 C 288.82789,229.97202 289.96461,229.58335 291.32399,229.58333 C 292.26148,229.58335 293.12476,229.78452 293.91384,230.18684 C 294.70289,230.5892 295.3064,231.13803 295.72438,231.83333 C 296.14234,232.52866 296.35132,233.26694 296.35134,234.04817 C 296.35132,234.79037 296.15211,235.46615 295.75368,236.07552 C 295.35523,236.6849 294.76539,237.16928 293.98415,237.52864 C 294.99976,237.76302 295.78882,238.24935 296.35134,238.98763 C 296.91382,239.72591 297.19507,240.64974 297.19509,241.75911 C 297.19507,243.25911 296.6482,244.5306 295.55446,245.57356 C 294.4607,246.61653 293.07789,247.13802 291.40602,247.13802 C 289.89821,247.13802 288.64625,246.6888 287.65016,245.79036 C 286.65407,244.89192 286.08571,243.72786 285.94509,242.29817 L 285.94509,242.29817 z"
       id="text16331"
       style="font-size:24px;font-style:normal;font-variant:normal;font-weight:normal;font-stretch:normal;text-align:center;line-height:100%;writing-mode:lr-tb;text-anchor:middle;fill:#000000;fill-opacity:1;stroke:none;stroke-width:1px;stroke-linecap:butt;stroke-linejoin:miter;stroke-opacity:1;font-family:Arial" />
    <path
       d="M 85.882427,60.304638 A 10.032993,10.032993 0 1 1 65.816441,60.304638 A 10.032993,10.032993 0 1 1 85.882427,60.304638 z"
       transform="translate(441.6791,327.8854)"
       id="path16317"
       style="fill:#ffff00;fill-opacity:1;fill-rule:evenodd;stroke:#000000;stroke-width:0.80000001;stroke-linecap:butt;stroke-linejoin:miter;stroke-miterlimit:4;stroke-dasharray:none;stroke-dashoffset:0;stroke-opacity:1" />
    <path
       d="M 511.83324,392.01615 L 514.04808,391.82865 C 514.21214,392.90678 514.593,393.71732 515.19066,394.26029 C 515.78831,394.80326 516.50901,395.07474 517.35277,395.07474 C 518.36839,395.07474 519.22776,394.69193 519.93089,393.9263 C 520.63401,393.16068 520.98557,392.14506 520.98558,390.87943 C 520.98557,389.67631 520.64768,388.72709 519.97191,388.03177 C 519.29612,387.33647 518.41136,386.98881 517.31761,386.9888 C 516.63792,386.98881 516.02464,387.14311 515.47777,387.45169 C 514.93089,387.7603 514.5012,388.16069 514.18871,388.65287 L 512.20824,388.39505 L 513.8723,379.57083 L 522.41527,379.57083 L 522.41527,381.58646 L 515.5598,381.58646 L 514.63402,386.20365 C 515.66526,385.48491 516.7473,385.12553 517.88011,385.12552 C 519.3801,385.12553 520.64573,385.64506 521.67699,386.68412 C 522.70823,387.72319 523.22385,389.05912 523.22386,390.69193 C 523.22385,392.24662 522.77073,393.59037 521.86449,394.72318 C 520.76292,396.1138 519.25901,396.80912 517.35277,396.80912 C 515.79026,396.80912 514.51488,396.37162 513.5266,395.49662 C 512.53831,394.62162 511.97386,393.46146 511.83324,392.01615 L 511.83324,392.01615 z"
       id="text16335"
       style="font-size:24px;font-style:normal;font-variant:normal;font-weight:normal;font-stretch:normal;text-align:center;line-height:100%;writing-mode:lr-tb;text-anchor:middle;fill:#000000;fill-opacity:1;stroke:none;stroke-width:1px;stroke-linecap:butt;stroke-linejoin:miter;stroke-opacity:1;font-family:Arial" />
    <path
       d="M 85.882427,60.304638 A 10.032993,10.032993 0 1 1 65.816441,60.304638 A 10.032993,10.032993 0 1 1 85.882427,60.304638 z"
       transform="translate(409.8364,313.4044)"
       id="path13656"
       style="fill:#ffff00;fill-opacity:1;fill-rule:evenodd;stroke:#000000;stroke-width:0.80000001;stroke-linecap:butt;stroke-linejoin:miter;stroke-miterlimit:4;stroke-dasharray:none;stroke-dashoffset:0;stroke-opacity:1" />
    <path
       d="M 487.19754,382.29892 L 487.19754,378.18564 L 479.74442,378.18564 L 479.74442,376.25204 L 487.58426,365.11923 L 489.30692,365.11923 L 489.30692,376.25204 L 491.62723,376.25204 L 491.62723,378.18564 L 489.30692,378.18564 L 489.30692,382.29892 L 487.19754,382.29892 z M 487.19754,376.25204 L 487.19754,368.50595 L 481.81863,376.25204 L 487.19754,376.25204 z"
       id="text16339"
       style="font-size:24px;font-style:normal;font-variant:normal;font-weight:normal;font-stretch:normal;text-align:center;line-height:100%;writing-mode:lr-tb;text-anchor:middle;fill:#000000;fill-opacity:1;stroke:none;stroke-width:1px;stroke-linecap:butt;stroke-linejoin:miter;stroke-opacity:1;font-family:Arial" />
    <path
       d="M 85.882427,60.304638 C 85.882427,65.84285 81.387646,70.337631 75.849434,70.337631 C 70.311222,70.337631 65.816441,65.84285 65.816441,60.304638 C 65.816441,54.766426 70.311222,50.271645 75.849434,50.271645 C 81.387646,50.271645 85.882427,54.766426 85.882427,60.304638 z"
       transform="translate(633.3183,407.825)"
       id="path16378"
       style="fill:#ffff00;fill-opacity:1;fill-rule:evenodd;stroke:#000000;stroke-width:0.80000001;stroke-linecap:butt;stroke-linejoin:miter;stroke-miterlimit:4;stroke-dashoffset:0;stroke-opacity:1" />
    <path
       d="M 711.33179,476.75464 L 709.22241,476.75464 L 709.22241,463.31323 C 708.71459,463.79762 708.04858,464.28199 707.22437,464.76636 C 706.40014,465.25074 705.65991,465.61402 705.00366,465.8562 L 705.00366,463.81714 C 706.18335,463.26246 707.21459,462.59059 708.09741,461.80151 C 708.98022,461.01247 709.60522,460.24684 709.97241,459.50464 L 711.33179,459.50464 L 711.33179,476.75464 z"
       id="text16380"
       style="font-size:24px;font-style:normal;font-variant:normal;font-weight:normal;font-stretch:normal;text-align:center;line-height:100%;writing-mode:lr-tb;text-anchor:middle;fill:#000000;fill-opacity:1;stroke:none;stroke-width:1px;stroke-linecap:butt;stroke-linejoin:miter;stroke-opacity:1;font-family:Arial" />
    <path
       d="M 85.882427,60.304638 A 10.032993,10.032993 0 1 1 65.816441,60.304638 A 10.032993,10.032993 0 1 1 85.882427,60.304638 z"
       transform="translate(375.5219,352.2235)"
       id="path16386"
       style="fill:#ffff00;fill-opacity:1;fill-rule:evenodd;stroke:#000000;stroke-width:0.80000001;stroke-linecap:butt;stroke-linejoin:miter;stroke-miterlimit:4;stroke-dasharray:none;stroke-dashoffset:0;stroke-opacity:1" />
    <path
       d="M 457.06074,419.12578 L 457.06074,421.15313 L 445.70527,421.15313 C 445.68964,420.64531 445.77167,420.15703 445.95136,419.68828 C 446.24042,418.91485 446.70331,418.15313 447.34003,417.40313 C 447.97675,416.65313 448.89667,415.78594 450.0998,414.80156 C 451.96698,413.27032 453.2287,412.05743 453.88496,411.16289 C 454.5412,410.26837 454.86932,409.42267 454.86933,408.62578 C 454.86932,407.78986 454.57049,407.08478 453.97285,406.51055 C 453.37518,405.93634 452.59589,405.64924 451.63496,405.64922 C 450.61932,405.64924 449.80683,405.95392 449.19746,406.56328 C 448.58808,407.17267 448.27948,408.01642 448.27167,409.09453 L 446.10371,408.87188 C 446.25214,407.2547 446.81073,406.02228 447.77949,405.17461 C 448.74823,404.32697 450.04901,403.90314 451.68183,403.90313 C 453.33026,403.90314 454.63495,404.36017 455.59589,405.27422 C 456.55682,406.1883 457.03729,407.32111 457.0373,408.67266 C 457.03729,409.36017 456.89666,410.03595 456.61542,410.7 C 456.33416,411.36407 455.86737,412.06329 455.21503,412.79766 C 454.56268,413.53204 453.4787,414.53985 451.96308,415.82109 C 450.69745,416.8836 449.88495,417.6043 449.52558,417.9832 C 449.1662,418.36211 448.86933,418.74297 448.63496,419.12578 L 457.06074,419.12578 z"
       id="text16388"
       style="font-size:24px;font-style:normal;font-variant:normal;font-weight:normal;font-stretch:normal;text-align:center;line-height:100%;writing-mode:lr-tb;text-anchor:middle;fill:#000000;fill-opacity:1;stroke:none;stroke-width:1px;stroke-linecap:butt;stroke-linejoin:miter;stroke-opacity:1;font-family:Arial" />
    <path
       d="M 85.882427,60.304638 A 10.032993,10.032993 0 1 1 65.816441,60.304638 A 10.032993,10.032993 0 1 1 85.882427,60.304638 z"
       transform="translate(249.4866,409.7763)"
       id="path16394"
       style="fill:#ffff00;fill-opacity:1;fill-rule:evenodd;stroke:#000000;stroke-width:0.80000001;stroke-linecap:butt;stroke-linejoin:miter;stroke-miterlimit:4;stroke-dasharray:none;stroke-dashoffset:0;stroke-opacity:1" />
    <path
       d="M 326.84775,478.67081 L 326.84775,474.55753 L 319.39462,474.55753 L 319.39462,472.62393 L 327.23447,461.49112 L 328.95712,461.49112 L 328.95712,472.62393 L 331.27744,472.62393 L 331.27744,474.55753 L 328.95712,474.55753 L 328.95712,478.67081 L 326.84775,478.67081 z M 326.84775,472.62393 L 326.84775,464.87784 L 321.46884,472.62393 L 326.84775,472.62393 z"
       id="text16396"
       style="font-size:24px;font-style:normal;font-variant:normal;font-weight:normal;font-stretch:normal;text-align:center;line-height:100%;writing-mode:lr-tb;text-anchor:middle;fill:#000000;fill-opacity:1;stroke:none;stroke-width:1px;stroke-linecap:butt;stroke-linejoin:miter;stroke-opacity:1;font-family:Arial" />
    <path
       d="M 85.882427,60.304638 A 10.032993,10.032993 0 1 1 65.816441,60.304638 A 10.032993,10.032993 0 1 1 85.882427,60.304638 z"
       transform="translate(201.4978,368.2359)"
       id="path17381"
       style="fill:#ffff00;fill-opacity:1;fill-rule:evenodd;stroke:#000000;stroke-width:0.80000001;stroke-linecap:butt;stroke-linejoin:miter;stroke-miterlimit:4;stroke-dasharray:none;stroke-dashoffset:0;stroke-opacity:1" />
    <path
       d="M 271.65193,432.36661 L 273.86677,432.17911 C 274.03083,433.25724 274.41169,434.06778 275.00935,434.61075 C 275.607,435.15372 276.3277,435.4252 277.17146,435.4252 C 278.18708,435.4252 279.04645,435.04239 279.74958,434.27676 C 280.4527,433.51114 280.80426,432.49552 280.80427,431.22989 C 280.80426,430.02677 280.46637,429.07755 279.7906,428.38223 C 279.11481,427.68693 278.23005,427.33927 277.1363,427.33926 C 276.45661,427.33927 275.84333,427.49357 275.29646,427.80215 C 274.74958,428.11076 274.31989,428.51115 274.0074,429.00333 L 272.02693,428.74551 L 273.69099,419.92129 L 282.23396,419.92129 L 282.23396,421.93692 L 275.37849,421.93692 L 274.45271,426.55411 C 275.48395,425.83537 276.56599,425.47599 277.6988,425.47598 C 279.19879,425.47599 280.46442,425.99552 281.49568,427.03458 C 282.52692,428.07365 283.04254,429.40958 283.04255,431.04239 C 283.04254,432.59708 282.58942,433.94083 281.68318,435.07364 C 280.58161,436.46426 279.0777,437.15958 277.17146,437.15958 C 275.60895,437.15958 274.33357,436.72208 273.34529,435.84708 C 272.357,434.97208 271.79255,433.81192 271.65193,432.36661 L 271.65193,432.36661 z"
       id="path17383"
       style="font-size:24px;font-style:normal;font-variant:normal;font-weight:normal;font-stretch:normal;text-align:center;line-height:100%;writing-mode:lr-tb;text-anchor:middle;fill:#000000;fill-opacity:1;stroke:none;stroke-width:1px;stroke-linecap:butt;stroke-linejoin:miter;stroke-opacity:1;font-family:Arial" />
  </g>
</svg>
