<svg width="688" height="437" viewBox="0 0 688 437" xmlns="http://www.w3.org/2000/svg"><title>map</title><g fill="none" fill-rule="evenodd"><g fill="#000"><path d="M0 357h685m0 0l-10.8-3v6l10.8-3z" stroke="#000" stroke-width="2" stroke-linecap="square"/><path d="M572.22 373.942c0 1.354.99 2.167 2.372 2.167 1.107 0 1.99-.45 2.413-.834l.007.288c0 .512.205.546.601.546h.465v-5.626c0-1.955-1.073-2.392-2.66-2.392-1.264 0-2.597.601-2.863.78l.28.751c.41-.294 1.497-.663 2.29-.663 1.162 0 1.818.219 1.818 1.477v.902c-.813 0-2.126.116-3.042.458-1.087.403-1.681 1.121-1.681 2.146zm1.128-.088c0-.69.403-1.128 1.182-1.422.663-.274 1.853-.363 2.413-.363v2.51c-.177.19-1.039.676-2.016.676-1.121 0-1.58-.581-1.58-1.401zm7.205 1.709c.266.184 1.476.553 2.618.553 2.338 0 3.924-1.75 3.924-4.3 0-2.495-1.374-3.718-3.076-3.718a3.264 3.264 0 0 0-2.373.957l.048-1.162v-3.247h-1.141v10.917zm1.141-.623v-5.154c.383-.348 1.149-.793 2.017-.793 1.463 0 2.235 1.046 2.222 2.974-.02 2.221-1.258 3.308-2.64 3.308-.717 0-1.339-.136-1.599-.335zm6.946.609c.45.294 1.476.56 2.474.56 1.661 0 2.721-.772 2.721-2.14 0-1.346-1.347-1.961-2.372-2.365-1.012-.39-1.716-.779-1.702-1.6.007-.614.588-1.059 1.702-1.059.766 0 1.504.22 1.77.424l.192-.868c-.274-.157-1.094-.41-2.003-.403-1.463.006-2.693.629-2.72 1.968-.014 1.272 1.01 1.942 2.207 2.427.93.376 1.86.738 1.86 1.559 0 .806-.711 1.21-1.71 1.21-.943-.014-1.948-.37-2.242-.574l-.177.86zm6.603-3.589c-.027 2.201.923 4.15 3.398 4.15 2.01 0 3.493-1.416 3.527-3.897.027-2.208-.95-4.115-3.384-4.115-1.982 0-3.507 1.374-3.54 3.862zm3.425 3.336c-1.586-.02-2.27-1.545-2.263-3.322.007-1.949.889-3.07 2.359-3.05 1.551.014 2.256 1.45 2.249 3.241-.007 1.948-.862 3.151-2.345 3.13zm5.68.704h1.142v-11.375h-1.141V376zm3.85-3.22c0 1.976.273 3.33 2.282 3.33.91 0 2.003-.404 2.728-.91v.417c0 .417.212.465.574.465h.438v-7.875h-1.142v6.228c-.437.328-1.353.731-2.146.731-1.21 0-1.6-.39-1.6-2.338v-4.621h-1.135v4.573zm8.927 1.374c0 1.668.82 1.955 1.777 1.955.711 0 1.661-.32 2.058-.642l-.198-.663c-.26.177-.998.39-1.463.39-.773 0-1.04-.137-1.04-1.682v-4.444h2.42v-.861h-2.42v-1.777h-.683c-.143.458-.253 1.285-.342 1.517-.123.328-.69.349-1.196.5v.621h1.087v5.086zm4.874-2.016c0 2.495 1.21 3.971 3.397 3.971.964 0 2.12-.294 2.632-.717l-.218-.663c-.41.266-1.415.519-2.12.519-1.442 0-2.502-.752-2.57-2.755-.007-.089-.007-.184-.007-.273h5.114c.061-.322.061-.698.061-1.197-.048-1.777-1.148-2.946-2.796-2.925-2.242.027-3.493 1.695-3.493 4.04zm1.162-.684c.205-1.798 1.108-2.543 2.263-2.543 1.415 0 1.873 1.114 1.79 2.543h-4.053zm11.956 2.7c0 1.668.82 1.955 1.778 1.955.71 0 1.66-.32 2.057-.642l-.198-.663c-.26.177-.998.39-1.463.39-.772 0-1.039-.137-1.039-1.682v-4.444h2.42v-.861h-2.42v-1.777h-.684c-.143.458-.253 1.285-.341 1.517-.123.328-.69.349-1.197.5v.621h1.087v5.086zm5.606 1.846h1.134v-7.786h-1.134V376zm.54-9.488c.437 0 .84-.349.84-.882 0-.444-.239-.773-.73-.773-.418 0-.842.37-.842.875 0 .493.335.78.732.78zm3.356 9.488h1.142v-6.002c.615-.506 1.593-.916 2.29-.943 1.278-.062 1.531.629 1.531 2.18V376h1.142v-4.84c0-.492-.028-.916-.09-1.271.582-.41 1.464-.827 2.202-.841 1.367-.041 1.579.752 1.579 2.201V376h1.135v-4.806c0-2.317-.636-3.124-2.283-3.103-1.108.013-2.243.595-2.83 1.046-.329-.793-.944-1.06-1.928-1.046-1.08.02-2.29.663-2.864 1.12l-.007-.997h-1.019V376zm12.913-3.862c0 2.495 1.21 3.971 3.398 3.971.964 0 2.119-.294 2.632-.717l-.22-.663c-.41.266-1.414.519-2.118.519-1.443 0-2.502-.752-2.57-2.755-.008-.089-.008-.184-.008-.273h5.114c.061-.322.061-.698.061-1.197-.048-1.777-1.148-2.946-2.796-2.925-2.242.027-3.493 1.695-3.493 4.04zm1.162-.684c.205-1.798 1.108-2.543 2.263-2.543 1.415 0 1.873 1.114 1.791 2.543h-4.054z"/></g><g fill="#000"><path d="M25 471V3m0 0l-3 10.8h6L25 3z" stroke="#000" stroke-width="2" stroke-linecap="square"/><path d="M16.882 82.116v-1.08l-5.721-1.586-1.005-.219 1.005-.205 5.721-1.62v-1.053l-7.916-2.427v1.115l5.387 1.51 1.224.294-1.258.287-5.353 1.525v1.128l5.353 1.51 1.23.274-1.23.294-5.353 1.565v1.142l7.916-2.454zm-2.18-9.208c1.353 0 2.167-.991 2.167-2.372 0-1.108-.452-1.99-.834-2.413l.287-.007c.512 0 .547-.205.547-.602v-.465h-5.626c-1.955 0-2.393 1.074-2.393 2.66 0 1.264.602 2.597.78 2.864l.751-.28c-.294-.41-.663-1.498-.663-2.29 0-1.163.219-1.819 1.477-1.819h.902c0 .814.116 2.126.458 3.042.403 1.087 1.121 1.682 2.147 1.682zm-.09-1.128c-.69 0-1.127-.404-1.421-1.183-.274-.663-.362-1.852-.362-2.413h2.508c.192.178.677 1.04.677 2.017 0 1.12-.58 1.579-1.401 1.579zm2.147-7.41v-1.142H5.384v1.142H16.76zm0-4.06v-1.143H5.384v1.142H16.76zm-1.845-8.717c1.668 0 1.955-.82 1.955-1.777 0-.711-.322-1.661-.643-2.058l-.663.199c.178.26.39.998.39 1.462 0 .773-.137 1.04-1.682 1.04H9.828v-2.42h-.862v2.42H7.19v.683c.458.144 1.285.253 1.518.342.328.123.348.69.499 1.196h.622v-1.087h5.086zm1.845-5.605v-1.135H8.973v1.135h7.786zm-9.488-.54c0-.438-.349-.841-.882-.841-.444 0-.772.24-.772.731 0 .417.369.841.875.841.492 0 .779-.335.779-.731zm9.488-3.357V40.95h-6.002c-.506-.616-.916-1.593-.943-2.29-.062-1.279.629-1.532 2.18-1.532h4.765v-1.141h-4.84c-.492 0-.916.027-1.271.089-.41-.581-.827-1.463-.84-2.201-.042-1.368.751-1.58 2.2-1.58h4.751v-1.134h-4.805c-2.318 0-3.124.635-3.104 2.283.014 1.107.595 2.242 1.046 2.83-.793.328-1.06.943-1.046 1.928.02 1.08.663 2.29 1.121 2.864l-.998.007v1.018h7.786zm-3.862-12.913c2.495 0 3.972-1.21 3.972-3.397 0-.964-.294-2.12-.718-2.632l-.663.219c.266.41.52 1.415.52 2.119 0 1.442-.753 2.502-2.756 2.57a3.65 3.65 0 0 1-.273.007v-5.113c-.321-.062-.697-.062-1.196-.062-1.778.048-2.947 1.149-2.926 2.796.027 2.242 1.695 3.493 4.04 3.493zm-.684-1.162c-1.797-.205-2.543-1.107-2.543-2.263 0-1.415 1.115-1.873 2.543-1.79v4.053z"/></g><path d="M-54.923 325.505l469.846-171.01m2.66-50.99L887.43-67.505" stroke="#A3BE8C" stroke-width="4" stroke-linecap="square"/><path d="M44.418 281.462c.57 1.567 1.44 1.556 2.339 1.229.668-.243 1.45-.87 1.714-1.308l-.414-.555c-.183.256-.804.708-1.24.867-.727.264-1.024.226-1.552-1.225l-1.52-4.176 2.274-.827-.295-.81-2.274.828-.608-1.67-.642.234c.022.48.202 1.294.198 1.543-.004.35-.53.563-.954.878l.213.584 1.021-.372 1.74 4.78zm5.899-.183l1.066-.388-2.663-7.317-1.066.388 2.663 7.317zm-2.738-9.1c.411-.15.67-.616.488-1.117-.152-.418-.489-.644-.951-.476-.392.143-.664.635-.49 1.11.167.462.58.618.953.482zm6.4 7.767l1.072-.39-2.053-5.64c.405-.686 1.184-1.406 1.83-1.67 1.18-.495 1.653.067 2.184 1.525l1.63 4.478 1.073-.39-1.656-4.549a7.605 7.605 0 0 0-.518-1.164c.406-.584 1.092-1.278 1.78-1.543 1.271-.506 1.742.167 2.237 1.528l1.625 4.465 1.067-.388-1.644-4.516c-.793-2.178-1.666-2.718-3.207-2.136-1.036.392-1.904 1.326-2.302 1.951-.58-.633-1.249-.673-2.169-.323-1.008.388-1.925 1.406-2.308 2.033l-.348-.936-.957.349 2.663 7.316zm10.813-8.046c.853 2.345 2.495 3.319 4.55 2.57.906-.33 1.891-1 2.228-1.574l-.432-.548c-.294.39-1.152.972-1.814 1.213-1.355.493-2.608.149-3.357-1.71a3.65 3.65 0 0 1-.1-.255l4.805-1.749c-.053-.323-.181-.676-.352-1.145-.653-1.654-2.087-2.376-3.628-1.793-2.097.793-2.702 2.788-1.9 4.991zm.858-1.04c-.422-1.76.17-2.768 1.256-3.163 1.33-.484 2.141.406 2.553 1.777l-3.81 1.386zm11.693.11l.37.337 5.435-1.978-.285-.783-4.208 1.53.227-.795 1.838-6.823-.36-.407-5.215 1.898.299.822 3.957-1.44-.214.791-1.844 6.847zm5.734-5.914c.727 2.078 2.286 3.583 4.612 2.737 1.888-.687 2.798-2.524 1.981-4.868-.729-2.084-2.3-3.542-4.587-2.71-1.863.678-2.825 2.49-2.006 4.84zm4.359 1.963c-1.497.523-2.661-.675-3.263-2.348-.66-1.833-.214-3.188 1.174-3.671 1.463-.518 2.615.59 3.221 2.275.66 1.833.269 3.256-1.132 3.744zm5.444-1.232l1.073-.39-2.053-5.64c.391-.645 1.123-1.413 1.812-1.678 1.234-.508 1.762-.016 2.29 1.436l1.65 4.535 1.074-.39-1.649-4.53c-.783-2.151-1.663-2.711-3.247-2.105-1.06.407-1.93 1.451-2.308 2.033l-.348-.936-.957.349 2.663 7.316zm6.381-6.433c.853 2.345 2.495 3.319 4.55 2.57.907-.33 1.892-1 2.229-1.574l-.433-.548c-.294.39-1.152.972-1.813 1.213-1.356.493-2.609.149-3.358-1.71a3.65 3.65 0 0 1-.1-.255l4.805-1.748c-.052-.323-.18-.677-.351-1.146-.653-1.653-2.087-2.375-3.628-1.793-2.098.793-2.703 2.788-1.901 4.991zm.858-1.04c-.422-1.759.171-2.768 1.257-3.163 1.33-.484 2.14.407 2.552 1.777l-3.809 1.387zm11.46.667l1.157-.42.005-3.044 4.272-1.554 1.921 2.341 1.176-.428-7.283-8.537-1.066.388-.182 11.254zm1.16-4.387l.016-5.054-.039-.866.525.682 3.192 3.894-3.693 1.344zM376.07 138.502c.57 1.567 1.439 1.556 2.338 1.229.668-.243 1.451-.87 1.714-1.308l-.413-.555c-.184.256-.805.707-1.242.866-.726.265-1.023.227-1.551-1.224l-1.52-4.176 2.274-.827-.295-.81-2.274.828-.608-1.67-.642.233c.022.48.202 1.295.198 1.543-.003.35-.53.564-.953.878l.212.585 1.022-.372 1.74 4.78zm5.73-.122l1.074-.39-2.05-5.635c.232-.499.783-1.245 1.63-1.554.534-.194.795-.194.94-.174l-.366-1.009c-.141-.007-.39.047-.725.17-.95.345-1.678 1.403-1.833 1.896l-.42-.953-.912.332 2.663 7.317zm4.121-3.69c.463 1.272 1.673 1.697 2.97 1.225 1.041-.379 1.715-1.104 1.983-1.609l.104.268c.176.481.38.443.753.308l.436-.16-1.924-5.286c-.668-1.837-1.827-1.881-3.317-1.339-1.188.433-2.235 1.454-2.425 1.712l.52.61c.286-.416 1.18-1.134 1.926-1.405 1.092-.398 1.783-.417 2.214.765l.308.848c-.764.278-1.958.836-2.702 1.47-.883.752-1.196 1.63-.846 2.593zm1.03-.47c-.236-.648-.007-1.197.625-1.74.53-.483 1.617-.974 2.143-1.166l.858 2.358c-.101.24-.744.991-1.663 1.326-1.054.383-1.683-.006-1.963-.777zm7.562-.467l1.073-.39-2.053-5.64c.391-.645 1.123-1.413 1.812-1.679 1.234-.507 1.762-.015 2.29 1.436l1.651 4.535 1.073-.39-1.648-4.529c-.784-2.152-1.664-2.712-3.248-2.106-1.06.407-1.93 1.452-2.308 2.033l-.348-.935-.957.348 2.663 7.317zm7.67-3.272c.524.122 1.58.022 2.517-.32 1.561-.568 2.293-1.656 1.825-2.94-.46-1.266-1.937-1.384-3.038-1.412-1.084-.02-1.879-.146-2.147-.921-.204-.58.19-1.197 1.237-1.578.72-.262 1.488-.309 1.81-.207l-.118-.882c-.31-.054-1.168-.01-2.02.306-1.372.507-2.316 1.513-1.883 2.781.422 1.2 1.614 1.478 2.905 1.525 1.002.036 2 .058 2.28.829.276.758-.254 1.38-1.192 1.721-.891.31-1.957.32-2.304.228l.128.87zm7.04-2.083l1.067-.388-2.663-7.316-1.067.388 2.663 7.316zm-2.737-9.1c.41-.15.67-.615.488-1.117-.152-.417-.489-.644-.951-.475-.392.142-.664.634-.491 1.11.168.462.581.617.954.482zm6.07 5.924c.57 1.567 1.44 1.556 2.338 1.229.669-.243 1.452-.87 1.714-1.308l-.413-.555c-.183.256-.804.707-1.241.866-.726.265-1.023.227-1.552-1.224l-1.52-4.176 2.274-.827-.294-.81-2.274.828-.608-1.67-.642.233c.021.48.202 1.295.197 1.543-.003.35-.53.564-.953.878l.213.585 1.021-.372 1.74 4.78zm5.898-.183l1.067-.388-2.663-7.317-1.067.388 2.663 7.317zm-2.737-9.101c.41-.15.67-.615.488-1.116-.152-.418-.489-.644-.951-.476-.392.143-.664.634-.491 1.11.168.462.581.618.954.482zm4.452 4.177c.727 2.078 2.286 3.584 4.612 2.738 1.888-.688 2.798-2.525 1.981-4.868-.729-2.085-2.3-3.542-4.587-2.71-1.863.678-2.825 2.49-2.006 4.84zm4.359 1.964c-1.497.523-2.661-.676-3.263-2.348-.66-1.833-.214-3.188 1.174-3.672 1.463-.518 2.615.59 3.221 2.276.66 1.833.269 3.256-1.132 3.744zm5.444-1.232l1.073-.39-2.053-5.64c.391-.645 1.123-1.413 1.812-1.679 1.234-.507 1.762-.015 2.29 1.436l1.65 4.535 1.074-.39-1.649-4.529c-.783-2.152-1.663-2.711-3.247-2.106-1.06.407-1.93 1.452-2.308 2.033l-.348-.935-.957.348 2.663 7.317zm12.152-6.387c.57 1.567 1.44 1.556 2.339 1.229.668-.243 1.45-.87 1.713-1.308l-.413-.555c-.183.256-.804.707-1.241.866-.726.265-1.023.227-1.552-1.224l-1.52-4.176 2.275-.827-.295-.81-2.274.828-.608-1.67-.642.233c.022.48.202 1.295.198 1.543-.004.35-.53.564-.954.879l.213.584 1.021-.372 1.74 4.78zm3.836-3.732c.727 2.078 2.286 3.584 4.612 2.737 1.888-.687 2.798-2.524 1.982-4.868-.73-2.084-2.3-3.542-4.588-2.71-1.863.679-2.825 2.491-2.006 4.841zm4.36 1.964c-1.498.523-2.662-.676-3.263-2.348-.66-1.833-.215-3.189 1.173-3.672 1.463-.518 2.615.59 3.222 2.276.66 1.833.268 3.256-1.133 3.744zm-71.536 45.46c.525.123 1.58.022 2.517-.319 1.561-.568 2.293-1.656 1.825-2.941-.46-1.266-1.937-1.383-3.038-1.411-1.084-.02-1.879-.146-2.147-.921-.204-.58.19-1.197 1.237-1.578.72-.262 1.488-.31 1.81-.208l-.118-.88c-.31-.055-1.168-.012-2.02.305-1.372.507-2.316 1.512-1.883 2.78.422 1.2 1.614 1.48 2.905 1.526 1.002.035 2 .058 2.28.829.276.758-.254 1.38-1.192 1.721-.891.31-1.957.32-2.304.227l.128.87zm5.76-5.042c.675 1.857 1.395 3.035 3.284 2.348.854-.311 1.744-1.064 2.252-1.788l.142.392c.143.392.358.364.699.24l.411-.149-2.693-7.4-1.073.39 2.13 5.852c-.3.458-1.022 1.15-1.767 1.422-1.137.414-1.637.18-2.303-1.65l-1.58-4.342-1.067.388 1.564 4.297zm9.188.082l1.073-.39-2.053-5.64c.405-.686 1.183-1.406 1.83-1.67 1.18-.495 1.653.067 2.184 1.525l1.63 4.478 1.072-.39-1.655-4.549a7.604 7.604 0 0 0-.518-1.164c.405-.584 1.091-1.278 1.78-1.543 1.271-.506 1.742.166 2.237 1.528l1.625 4.465 1.067-.388-1.644-4.516c-.793-2.178-1.666-2.718-3.207-2.136-1.036.392-1.904 1.326-2.302 1.951-.58-.633-1.249-.673-2.169-.323-1.008.388-1.925 1.406-2.308 2.033l-.348-.936-.957.349 2.663 7.316zm12.706-4.625l1.073-.39-2.053-5.64c.405-.686 1.183-1.406 1.83-1.67 1.18-.495 1.653.068 2.184 1.526l1.63 4.477 1.072-.39-1.655-4.548a7.605 7.605 0 0 0-.518-1.165c.405-.584 1.092-1.277 1.78-1.543 1.271-.506 1.742.167 2.237 1.529l1.625 4.464 1.067-.388-1.644-4.516c-.793-2.178-1.666-2.718-3.207-2.135-1.036.391-1.904 1.325-2.302 1.95-.58-.632-1.249-.673-2.169-.323-1.008.389-1.925 1.406-2.308 2.033l-.348-.935-.957.348 2.663 7.316zm10.813-8.045c.854 2.344 2.496 3.318 4.551 2.57.906-.33 1.891-1.001 2.228-1.575l-.432-.548c-.295.39-1.152.972-1.814 1.213-1.355.493-2.608.149-3.357-1.71a3.65 3.65 0 0 1-.1-.254l4.804-1.75c-.052-.322-.18-.676-.35-1.144-.654-1.654-2.088-2.376-3.629-1.794-2.097.793-2.703 2.788-1.9 4.992zm.859-1.04c-.423-1.76.17-2.769 1.256-3.164 1.33-.484 2.141.407 2.553 1.777l-3.81 1.387zm8.229 1.842l1.072-.39-2.05-5.634c.233-.5.783-1.245 1.631-1.554.533-.194.795-.194.94-.175l-.367-1.008c-.14-.007-.39.047-.724.169-.95.346-1.678 1.404-1.834 1.897l-.42-.953-.911.332 2.663 7.316zm9.235-5.325c.57 1.567 1.44 1.556 2.339 1.229.668-.243 1.451-.87 1.714-1.308l-.413-.555c-.184.256-.805.708-1.242.867-.726.264-1.023.226-1.551-1.225l-1.52-4.176 2.274-.827-.295-.81-2.274.828-.607-1.67-.643.234c.022.48.202 1.294.198 1.543-.003.35-.53.563-.953.878l.212.584 1.022-.372 1.74 4.78zm5.899-.183l1.066-.388-2.663-7.317-1.066.388 2.663 7.317zm-2.738-9.1c.411-.15.671-.616.489-1.117-.152-.418-.49-.644-.952-.476-.392.143-.664.635-.49 1.11.168.462.58.618.953.482zm6.4 7.767l1.072-.39-2.053-5.64c.405-.686 1.184-1.406 1.83-1.67 1.18-.495 1.654.067 2.184 1.525l1.63 4.478 1.073-.39-1.656-4.549a7.605 7.605 0 0 0-.518-1.164c.406-.584 1.092-1.278 1.78-1.543 1.272-.506 1.742.167 2.238 1.528l1.624 4.465 1.067-.388-1.644-4.516c-.792-2.178-1.666-2.718-3.207-2.136-1.036.392-1.903 1.326-2.301 1.951-.58-.633-1.25-.673-2.17-.323-1.008.388-1.925 1.406-2.308 2.033l-.348-.936-.957.349 2.663 7.316zm10.813-8.046c.853 2.345 2.495 3.319 4.55 2.57.906-.33 1.891-1 2.228-1.574l-.432-.548c-.294.39-1.152.972-1.814 1.213-1.355.493-2.608.149-3.357-1.71a3.65 3.65 0 0 1-.1-.255l4.805-1.749c-.052-.323-.18-.676-.352-1.145-.652-1.654-2.086-2.376-3.628-1.793-2.097.793-2.702 2.788-1.9 4.991zm.858-1.04c-.422-1.76.17-2.768 1.256-3.163 1.33-.484 2.142.406 2.553 1.777l-3.81 1.386z" fill="#000"/><path d="M-154.923 467.505l469.846-171.01m2.66 49.01l469.847-171.01" stroke="#D08770" stroke-width="4" stroke-linecap="square"/><path d="M56.583 405.453c.57 1.567 1.439 1.557 2.338 1.23.668-.244 1.451-.87 1.714-1.308l-.413-.556c-.183.256-.805.708-1.241.867-.726.264-1.024.227-1.552-1.225l-1.52-4.175 2.274-.828-.294-.81-2.274.828-.608-1.67-.642.234c.021.48.201 1.294.197 1.543-.003.35-.53.564-.953.878l.213.584 1.021-.371 1.74 4.779zm5.898-.183l1.067-.388-2.663-7.317-1.067.389 2.663 7.316zm-2.738-9.1c.412-.15.671-.616.489-1.117-.152-.417-.489-.644-.952-.476-.391.143-.663.635-.49 1.11.168.463.58.618.953.482zm6.4 7.768l1.072-.39-2.052-5.64c.405-.687 1.183-1.406 1.829-1.67 1.18-.496 1.654.067 2.185 1.525l1.63 4.477 1.072-.39-1.655-4.548a7.605 7.605 0 0 0-.519-1.165c.406-.584 1.092-1.277 1.781-1.543 1.27-.506 1.741.167 2.237 1.529l1.625 4.464 1.066-.388-1.643-4.516c-.793-2.177-1.666-2.718-3.207-2.135-1.036.391-1.904 1.325-2.302 1.95-.58-.632-1.249-.673-2.17-.323-1.007.389-1.924 1.406-2.307 2.033l-.348-.935-.957.348 2.663 7.317zm10.813-8.046c.853 2.344 2.495 3.318 4.551 2.57.906-.33 1.89-1.001 2.228-1.575l-.433-.548c-.294.39-1.152.972-1.813 1.213-1.356.493-2.609.149-3.358-1.71a3.65 3.65 0 0 1-.1-.254l4.805-1.75c-.052-.322-.18-.676-.351-1.144-.653-1.654-2.087-2.376-3.628-1.794-2.098.793-2.703 2.788-1.9 4.992zm.858-1.04c-.422-1.76.171-2.769 1.257-3.164 1.33-.484 2.141.407 2.553 1.777l-3.81 1.387zm11.694.108l.37.338 5.435-1.977-.286-.784-4.207 1.531.227-.795 1.838-6.824-.36-.407-5.216 1.898.3.823 3.956-1.44-.214.79-1.843 6.847zm5.733-5.913c.727 2.078 2.287 3.584 4.612 2.737 1.889-.687 2.799-2.524 1.982-4.868-.73-2.084-2.3-3.542-4.587-2.71-1.863.679-2.826 2.491-2.007 4.841zm4.36 1.964c-1.498.523-2.662-.676-3.263-2.348-.66-1.834-.215-3.189 1.173-3.672 1.463-.518 2.616.59 3.222 2.276.66 1.833.268 3.255-1.132 3.744zm5.444-1.233l1.072-.39-2.053-5.64c.392-.644 1.123-1.413 1.812-1.678 1.234-.507 1.762-.016 2.29 1.436l1.651 4.535 1.073-.39-1.648-4.529c-.783-2.152-1.664-2.712-3.248-2.106-1.059.407-1.93 1.452-2.308 2.033l-.347-.936-.957.349 2.663 7.316zm6.38-6.432c.854 2.344 2.496 3.318 4.551 2.57.906-.33 1.891-1.001 2.228-1.575l-.432-.548c-.294.39-1.152.972-1.814 1.213-1.355.493-2.608.15-3.357-1.71-.037-.08-.07-.17-.1-.254l4.805-1.75c-.053-.322-.181-.675-.352-1.144-.653-1.654-2.087-2.376-3.628-1.793-2.097.792-2.702 2.787-1.9 4.99zm.859-1.04c-.422-1.76.17-2.768 1.256-3.164 1.33-.484 2.141.407 2.553 1.777l-3.81 1.387zm12.571.262l.572-.208c.652-.208 1.549-.462 2.255-.72 2.865-1.042 3.438-2.545 2.763-4.402-.466-1.278-1.87-1.88-3.086-1.503 1.047-.701 1.053-1.984.714-2.915-.524-1.439-1.886-1.903-4.032-1.122-.893.325-1.338.581-2.153.878l-.594.209 3.561 9.783zm-.903-5.84l-1.298-3.565c.335-.18 1.109-.491 1.462-.62 1.394-.507 2.513-.412 2.96.815.427 1.175.095 2.14-.886 2.584-.482.176-1.8.692-2.238.786zm1.678 4.612l-1.377-3.783c.314-.158 1.616-.618 2.104-.795 1.48-.51 2.557-.29 3.03 1.007.56 1.541-.196 2.42-1.873 3.03-.597.218-1.307.447-1.884.541zm150.407-51.01c.57 1.568 1.439 1.557 2.338 1.23.668-.244 1.451-.87 1.714-1.308l-.413-.555c-.183.255-.805.707-1.241.866-.726.264-1.024.227-1.552-1.225l-1.52-4.175 2.274-.828-.294-.81-2.274.828-.608-1.67-.642.234c.021.48.201 1.294.197 1.543-.003.35-.53.564-.953.878l.213.585 1.021-.372 1.74 4.78zm5.731-.122l1.073-.39-2.05-5.634c.232-.5.783-1.245 1.63-1.554.534-.194.796-.195.941-.175l-.367-1.008c-.14-.007-.39.047-.724.169-.95.346-1.679 1.404-1.834 1.897l-.42-.953-.912.332 2.663 7.316zm4.12-3.69c.464 1.273 1.673 1.698 2.97 1.226 1.041-.379 1.716-1.105 1.983-1.61l.105.268c.175.482.38.444.752.308l.437-.159-1.924-5.286c-.669-1.837-1.827-1.882-3.317-1.34-1.189.433-2.236 1.455-2.425 1.713l.52.61c.285-.416 1.18-1.135 1.925-1.406 1.092-.397 1.784-.416 2.214.766l.309.848c-.765.278-1.958.836-2.702 1.47-.884.751-1.197 1.63-.846 2.593zm1.03-.468c-.236-.65-.007-1.198.625-1.741.53-.484 1.617-.974 2.144-1.166l.858 2.358c-.102.24-.745.99-1.664 1.325-1.053.384-1.682-.006-1.963-.776zm7.563-.469l1.072-.39-2.052-5.64c.39-.645 1.122-1.413 1.811-1.678 1.234-.507 1.762-.016 2.29 1.436l1.651 4.535 1.073-.39-1.648-4.53c-.783-2.151-1.664-2.71-3.247-2.105-1.06.407-1.93 1.452-2.308 2.033l-.348-.936-.957.349 2.663 7.316zm7.67-3.271c.524.121 1.579.021 2.516-.32 1.561-.568 2.293-1.657 1.825-2.941-.46-1.266-1.936-1.383-3.038-1.412-1.084-.02-1.879-.145-2.146-.92-.204-.581.19-1.197 1.237-1.578.72-.262 1.488-.31 1.809-.208l-.118-.88c-.31-.055-1.168-.012-2.02.305-1.372.507-2.315 1.512-1.883 2.78.422 1.2 1.615 1.479 2.905 1.526 1.002.035 2 .058 2.28.829.276.758-.254 1.38-1.192 1.721-.891.31-1.957.32-2.303.227l.127.87zm7.04-2.083l1.066-.388-2.663-7.317-1.066.389 2.663 7.316zm-2.738-9.1c.411-.15.671-.616.489-1.117-.152-.417-.49-.644-.952-.476-.392.143-.664.635-.49 1.11.168.463.58.618.953.482zm6.07 5.923c.57 1.568 1.44 1.557 2.339 1.23.668-.244 1.45-.87 1.714-1.308l-.413-.555c-.184.255-.805.707-1.242.866-.726.264-1.023.227-1.551-1.225l-1.52-4.175 2.274-.828-.295-.81-2.274.828-.608-1.67-.642.234c.022.48.202 1.294.198 1.543-.004.35-.53.564-.954.878l.213.585 1.022-.372 1.739 4.78zm5.899-.183l1.066-.388-2.663-7.316-1.066.388 2.663 7.316zm-2.738-9.1c.411-.15.67-.616.488-1.117-.151-.417-.489-.644-.951-.475-.392.142-.664.634-.49 1.11.167.462.58.617.953.482zm4.452 4.177c.727 2.078 2.287 3.584 4.612 2.737 1.888-.687 2.798-2.524 1.982-4.868-.73-2.084-2.3-3.542-4.587-2.71-1.863.679-2.826 2.491-2.007 4.841zm4.36 1.963c-1.498.524-2.662-.675-3.263-2.348-.66-1.833-.215-3.188 1.173-3.671 1.463-.518 2.616.59 3.222 2.275.66 1.834.268 3.256-1.133 3.744zm5.443-1.232l1.073-.39-2.053-5.64c.391-.644 1.123-1.413 1.812-1.678 1.234-.507 1.762-.016 2.29 1.436l1.651 4.535 1.073-.39-1.648-4.529c-.784-2.152-1.664-2.712-3.248-2.106-1.059.407-1.93 1.452-2.308 2.033l-.348-.936-.957.349 2.663 7.316zm12.152-6.387c.57 1.568 1.44 1.557 2.339 1.23.668-.244 1.451-.87 1.714-1.308l-.413-.555c-.184.256-.805.707-1.242.866-.726.264-1.023.227-1.551-1.225l-1.52-4.175 2.274-.828-.295-.81-2.274.829-.607-1.67-.643.233c.022.48.202 1.294.198 1.543-.003.35-.53.564-.953.878l.212.585 1.022-.372 1.74 4.78zm3.836-3.731c.727 2.078 2.287 3.583 4.612 2.737 1.889-.687 2.798-2.524 1.982-4.868-.73-2.084-2.3-3.542-4.587-2.71-1.863.678-2.826 2.491-2.007 4.84zm4.36 1.963c-1.498.523-2.662-.675-3.263-2.348-.66-1.833-.215-3.188 1.173-3.671 1.463-.518 2.616.59 3.222 2.275.66 1.833.268 3.256-1.133 3.744zm-63.698 43.22l1.015-.37-.467-5.919-.138-1.019.536.874 3.48 4.823.989-.36-.427-8.269-1.047.381.423 5.579.142 1.25-.7-1.084-3.263-4.508-1.06.386.41 5.546.165 1.25-.697-1.056-3.302-4.494-1.073.39 5.014 6.6zm9.26-3.501l1.065-.388-2.663-7.317-1.066.388 2.663 7.317zm-2.739-9.101c.412-.15.671-.615.489-1.116-.152-.418-.49-.644-.952-.476-.391.143-.663.634-.49 1.11.168.462.58.618.953.482zm6.4 7.768l1.072-.39-2.052-5.64c.39-.645 1.122-1.413 1.811-1.678 1.234-.508 1.762-.016 2.29 1.436l1.651 4.535 1.073-.39-1.648-4.53c-.783-2.151-1.664-2.711-3.247-2.106-1.06.408-1.93 1.452-2.308 2.034l-.348-.936-.957.348 2.663 7.317zm7.944-4.856c.57 1.568 1.44 1.557 2.339 1.23.668-.244 1.45-.87 1.714-1.308l-.413-.555c-.184.256-.805.707-1.242.866-.726.264-1.023.227-1.551-1.225l-1.52-4.175 2.274-.828-.295-.809-2.274.828-.608-1.67-.642.233c.022.48.202 1.294.198 1.543-.004.35-.53.564-.954.878l.213.585 1.022-.372 1.739 4.78zm3.89-3.562c.854 2.345 2.496 3.319 4.551 2.57.906-.33 1.891-1 2.228-1.574l-.432-.548c-.295.39-1.152.972-1.814 1.213-1.355.493-2.608.149-3.358-1.71a3.65 3.65 0 0 1-.1-.255l4.805-1.749c-.052-.322-.18-.676-.351-1.145-.653-1.653-2.087-2.376-3.628-1.793-2.098.793-2.703 2.788-1.9 4.991zm.859-1.04c-.423-1.76.17-2.768 1.256-3.163 1.33-.484 2.141.406 2.553 1.777l-3.81 1.387zm8.229 1.843l1.072-.39-2.05-5.634c.233-.5.783-1.245 1.631-1.554.533-.194.795-.195.94-.175l-.367-1.008c-.14-.007-.39.047-.724.169-.95.346-1.678 1.404-1.834 1.896l-.42-.953-.911.332 2.663 7.317zm9.235-5.326c.57 1.568 1.44 1.557 2.339 1.23.668-.243 1.451-.87 1.714-1.308l-.413-.555c-.184.256-.805.707-1.242.866-.726.265-1.023.227-1.551-1.224l-1.52-4.176 2.274-.828-.295-.809-2.274.828-.608-1.67-.642.233c.022.48.202 1.295.198 1.543-.003.35-.53.564-.954.878l.213.585 1.022-.372 1.74 4.78zm5.899-.182l1.066-.388-2.663-7.317-1.066.388 2.663 7.317zm-2.738-9.101c.411-.15.67-.615.489-1.116-.152-.418-.49-.644-.952-.476-.392.143-.664.634-.49 1.11.168.462.58.617.953.482zm6.4 7.768l1.072-.39-2.053-5.64c.405-.686 1.184-1.406 1.83-1.67 1.18-.495 1.654.067 2.184 1.525l1.63 4.478 1.073-.39-1.656-4.549a7.605 7.605 0 0 0-.518-1.164c.406-.584 1.092-1.278 1.78-1.543 1.271-.506 1.742.166 2.237 1.528l1.625 4.465 1.067-.389-1.644-4.515c-.792-2.178-1.666-2.719-3.207-2.136-1.036.392-1.903 1.326-2.302 1.95-.58-.632-1.248-.672-2.169-.323-1.008.39-1.925 1.407-2.308 2.034l-.348-.936-.957.348 2.663 7.317zm10.813-8.046c.853 2.345 2.495 3.318 4.55 2.57.906-.33 1.891-1 2.228-1.574l-.432-.549c-.294.391-1.152.972-1.814 1.213-1.355.494-2.608.15-3.357-1.71a3.65 3.65 0 0 1-.1-.254l4.805-1.749c-.052-.323-.181-.676-.352-1.145-.653-1.654-2.087-2.376-3.628-1.793-2.097.793-2.702 2.788-1.9 4.991zm.858-1.04c-.422-1.76.17-2.768 1.256-3.163 1.33-.484 2.142.406 2.553 1.777l-3.81 1.386z" fill="#000"/></g></svg>